Format : AVI
Format/Info : Audio Video Interleave
File size : 986 MiB
Duration : 1h 46mn
Overall bit rate : 1 292 Kbps
Writing library : VirtualDub build 32842/release

Video
ID : 0
Format : MPEG-4 Visual
Format profile : Advanced Simple@L5
Format settings, BVOP : 2
Format settings, QPel : No
Format settings, GMC : No warppoints
Format settings, Matrix : Default (H.263)
Muxing mode : Packed bitstream
Codec ID : XVID
Codec ID/Hint : XviD
Duration : 1h 46mn
Bit rate : 1 088 Kbps
Width : 720 pixels
Height : 272 pixels
Display aspect ratio : 2.647
Frame rate : 29.970 fps
Color space : YUV
Chroma subsampling : 4:2:0
Bit depth : 8 bits
Scan type : Progressive
Compression mode : Lossy
Bits/(Pixel*Frame) : 0.185
Stream size : 830 MiB (84%)
Writing library : XviD 64

Audio
ID : 1
Format : MPEG Audio
Format version : Version 1
Format profile : Layer 3
Mode : Joint stereo
Mode extension : MS Stereo
Codec ID : 55
Codec ID/Hint : MP3
Duration : 1h 46mn
Bit rate mode : Constant
Bit rate : 192 Kbps
Channel(s) : 2 channels
Sampling rate : 44.1 KHz
Compression mode : Lossy
Stream size : 146 MiB (15%)
Alignment : Split accross interleaves
Interleave, duration : 33 ms (1.00 video frame)
Interleave, preload duration : 500 ms





 
http://www.imdb.com/title/tt1262416/








Users: (22,731 votes) 364 reviews | Critics: 274 reviews Metascore: 52/100 (based on 32 reviews from Metacritic.com)


Ten years have passed, and Sidney Prescott, who has put herself back together thanks in part to her writing, is visited by the Ghostface Killer.

Director: Wes Craven
Writers: Kevin Williamson, Kevin Williamson (characters)
Stars: Neve Campbell, Courteney Cox and David Arquette





















Source Used



HD KORSUB RIP .........Thanks


One and only reason for the READNFO is cropped fully out the korsubs .Dont like cropping vids one bit but was asked ...Never lost too much tho as bottom of screen was black border


Ar is slightly off as after crop resized a touch but not much



Enjoy





Greetz to IMAGiNE,Flawl3ss,DiLLoN,BDK,NOiR,TOXiC,THC,Ez,Rx,Boobyblue,TaRiQ786,BHRG